<svg width="18" height="18" viewBox="0 0 18 18" fill="none" xmlns="http://www.w3.org/2000/svg">
<path d="M15 4.5C15.1912 4.50021 15.375 4.57341 15.514 4.70464C15.653 4.83586 15.7367 5.01521 15.7479 5.20605C15.7591 5.39688 15.697 5.58478 15.5743 5.73137C15.4516 5.87796 15.2776 5.97217 15.0878 5.99475L15 6H14.9392L14.25 14.25C14.25 14.8239 14.0308 15.3761 13.637 15.7937C13.2433 16.2113 12.7049 16.4626 12.132 16.4963L12 16.5H6C4.8015 16.5 3.822 15.5632 3.756 14.4375L3.75225 14.3123L3.06 6H3C2.80884 5.99979 2.62498 5.92659 2.48597 5.79536C2.34697 5.66414 2.26332 5.48479 2.25212 5.29395C2.24092 5.10312 2.30301 4.91522 2.4257 4.76863C2.54839 4.62204 2.72243 4.52783 2.91225 4.50525L3 4.5H15ZM7.88325 8.355C7.72611 8.26146 7.54021 8.22855 7.36051 8.26247C7.18081 8.29639 7.01969 8.3948 6.90746 8.53919C6.79523 8.68357 6.73962 8.86399 6.75109 9.0465C6.76257 9.22902 6.84033 9.40105 6.96975 9.53025L7.93875 10.5L6.96975 11.4698L6.9075 11.5402C6.79094 11.691 6.73613 11.8805 6.7542 12.0701C6.77227 12.2598 6.86187 12.4355 7.00479 12.5616C7.14772 12.6876 7.33325 12.7545 7.52371 12.7487C7.71417 12.7429 7.89528 12.6648 8.03025 12.5303L9 11.5612L9.96975 12.5303L10.0402 12.5925C10.191 12.7091 10.3805 12.7639 10.5701 12.7458C10.7598 12.7277 10.9355 12.6381 11.0616 12.4952C11.1876 12.3523 11.2545 12.1667 11.2487 11.9763C11.2429 11.7858 11.1648 11.6047 11.0302 11.4698L10.0612 10.5L11.0302 9.53025L11.0925 9.45975C11.2091 9.30901 11.2639 9.11955 11.2458 8.92986C11.2277 8.74016 11.1381 8.56446 10.9952 8.43844C10.8523 8.31241 10.6667 8.24551 10.4763 8.25133C10.2858 8.25715 10.1047 8.33524 9.96975 8.46975L9 9.43875L8.03025 8.46975L7.95975 8.4075L7.88325 8.355Z" fill="#CB3C3C"/>
<path d="M10.5 1.5C10.8978 1.5 11.2794 1.65804 11.5607 1.93934C11.842 2.22064 12 2.60218 12 3C11.9998 3.19116 11.9266 3.37502 11.7954 3.51403C11.6641 3.65303 11.4848 3.73668 11.294 3.74788C11.1031 3.75908 10.9152 3.69699 10.7686 3.5743C10.622 3.45161 10.5278 3.27757 10.5052 3.08775L10.5 3H7.5L7.49475 3.08775C7.47217 3.27757 7.37796 3.45161 7.23137 3.5743C7.08478 3.69699 6.89688 3.75908 6.70605 3.74788C6.51521 3.73668 6.33586 3.65303 6.20464 3.51403C6.07341 3.37502 6.00021 3.19116 6 3C5.99988 2.62157 6.1428 2.25708 6.40012 1.97959C6.65744 1.7021 7.01013 1.53213 7.3875 1.50375L7.5 1.5H10.5Z" fill="#CB3C3C"/>
</svg>
